<?xml version="1.0" encoding="UTF-8"?>
<svg version="1.1" xmlns="http://www.w3.org/2000/svg" width="777" height="208">
<path d="M0 0 C256.41 0 512.82 0 777 0 C777 68.64 777 137.28 777 208 C520.59 208 264.18 208 0 208 C0 139.36 0 70.72 0 0 Z " fill="#DB3920" transform="translate(0,0)"/>
<path d="M0 0 C1.16269964 -0.00346153 1.16269964 -0.00346153 2.34888816 -0.006993 C4.94964401 -0.01229228 7.55015288 -0.00330949 10.15089607 0.00558662 C12.03285916 0.00471454 13.91482201 0.00296352 15.79678357 0.00040829 C20.97097458 -0.00406873 26.14508297 0.00394337 31.31926346 0.01396441 C36.89794221 0.02259147 42.47661621 0.01967928 48.05529976 0.01815987 C57.72165597 0.01711054 67.38798521 0.02339209 77.05433464 0.03463554 C91.03029609 0.05088116 105.00624448 0.05609759 118.98221435 0.05861153 C141.65662432 0.0629901 164.33101747 0.07628645 187.00541878 0.09521675 C209.03308729 0.11358589 231.06075195 0.12775298 253.08842659 0.13623238 C254.10693601 0.13662695 254.10693601 0.13662695 255.14602139 0.1370295 C261.9648906 0.13966655 268.78375985 0.14221818 275.60262913 0.14470722 C332.78703257 0.16558888 389.97142032 0.20088098 447.1558094 0.24609566 C445.62175135 3.38515623 443.90178065 6.21228348 441.92534065 9.09765816 C441.28661018 10.03222847 440.64787971 10.96679878 439.98979378 11.92968941 C439.32270393 12.90035347 438.65561409 13.87101753 437.9683094 14.87109566 C437.3205555 15.81855659 436.67280159 16.76601753 436.00541878 17.74218941 C432.26319391 23.20785649 428.48603252 28.64790462 424.68144417 34.07031441 C422.4800521 37.2098257 420.30137877 40.36487094 418.12285042 43.52026558 C415.62218318 47.13772586 413.10818757 50.74551517 410.5854969 54.34765816 C409.92928352 55.28649849 409.27307014 56.22533882 408.59697151 57.19262886 C407.33163784 59.002517 406.06446593 60.81112262 404.79472542 62.61792183 C404.17009407 63.51228951 403.54546272 64.40665718 402.90190315 65.32812691 C402.19919037 66.27258423 401.49647758 67.21704155 400.77247047 68.19011879 C398.5837433 71.33625819 397.11268323 74.558321 395.60193825 78.07589149 C392.17448028 85.30793211 388.08331555 93.70877255 380.31513357 97.03401375 C369.11346402 100.37861942 356.5825442 99.32754838 345.04433274 99.03167057 C339.93894351 98.92737125 334.83421563 98.96314414 329.72805977 98.98132515 C320.89606529 98.99387074 312.06834714 98.91901221 303.23742867 98.78361702 C290.47041495 98.58800195 277.70545487 98.52600834 264.93710512 98.49590522 C244.21928528 98.44346336 223.50374184 98.28398614 202.78715706 98.05664253 C182.67106146 97.83611916 162.55558562 97.66635144 142.43852425 97.56445503 C141.19715067 97.55814967 139.95577709 97.5518443 138.67678612 97.54534787 C132.44876245 97.51402545 126.2207344 97.48369682 119.99270344 97.45386219 C68.3788327 97.20532786 16.76743243 96.78285278 -34.8441906 96.24609566 C-34.93732192 87.57004719 -35.00817235 78.8941737 -35.05143929 70.21773243 C-35.07221683 66.18786193 -35.10035157 62.15833618 -35.14594841 58.12866402 C-35.18976122 54.23178268 -35.21340143 50.33523063 -35.22369957 46.4381218 C-35.23102801 44.95951156 -35.24533682 43.4809171 -35.26711082 42.00244904 C-35.45352807 28.80659189 -33.58558779 19.10357551 -24.21528435 9.41015816 C-17.0070255 2.831286 -9.81562872 -0.07220735 0 0 Z " fill="#072D61" transform="translate(98.84419059753418,66.75390434265137)"/>
<path d="M0 0 C59.07 0 118.14 0 179 0 C179 68.64 179 137.28 179 208 C173.72 208 168.44 208 163 208 C159.69261744 204.12410881 158.12967165 201.46535826 156 197 C154.45722741 194.46833504 152.80010904 192.01750877 151.14453125 189.55859375 C150.27108973 188.2305812 149.39920834 186.90154136 148.52880859 185.5715332 C147.62343025 184.19348413 146.71799287 182.81547383 145.8125 181.4375 C145.34579895 180.72669281 144.8790979 180.01588562 144.39825439 179.28353882 C138.81115467 170.7743293 133.20626136 162.2780865 127.54077148 153.82080078 C121.97249095 145.49243621 116.50180173 137.09950363 111.02294922 128.7121582 C107.06865099 122.66199637 103.09374455 116.62685663 99.078125 110.6171875 C93.79668483 102.71303333 88.58257012 94.76544788 83.375 86.8125 C81.59171445 84.08947074 79.80794726 81.36675842 78.0234375 78.64453125 C77.59319778 77.98816681 77.16295807 77.33180237 76.71968079 76.6555481 C74.0826087 72.63696949 71.42580291 68.63227512 68.75390625 64.63671875 C65.83317642 60.26704462 62.96822442 55.86562204 60.13061523 51.44165039 C54.72901416 43.03103037 49.19717855 34.85145619 43 27 C42.37738281 26.16984375 41.75476563 25.3396875 41.11328125 24.484375 C31.12361197 12.74051241 14.87484398 4.4326563 0 1 C0 0.67 0 0.34 0 0 Z " fill="#0B204D" transform="translate(598,0)"/>
<path d="M0 0 C5.43781141 3.92028265 9.37545773 8.22655609 12.91015625 13.93359375 C16.73118561 20.02761198 20.69249798 26.01897686 24.6875 32 C25.36039063 33.01126953 26.03328125 34.02253906 26.7265625 35.06445312 C29.83702979 39.72715167 32.97121468 44.36697643 36.19921875 48.94921875 C40.07627335 54.45626132 43.78562043 60.06999627 47.5 65.6875 C52.85269215 73.76499574 58.30014845 81.73288985 64.0625 89.5234375 C65.6875 91.9375 65.6875 91.9375 65.6875 93.9375 C60.85008928 94.26088703 56.01904061 94.49553078 51.17333984 94.65161133 C49.52932169 94.71668099 47.88604747 94.80518697 46.24462891 94.91821289 C40.82129501 95.28207348 35.95671623 95.40180367 30.6875 93.9375 C28.67382812 91.03198242 28.67382812 91.03198242 27.15625 87.46875 C25.41805023 83.733426 25.41805023 83.733426 22.6875 80.9375 C14.61744192 78.43708718 5.52555553 79.39978725 -2.8125 79.625 C-5.18486073 79.64200095 -7.55727127 79.65313106 -9.9296875 79.65820312 C-15.72626197 79.68335953 -21.51803671 79.78193847 -27.3125 79.9375 C-25.79801064 75.95623505 -24.0040568 72.91400481 -21.4375 69.5 C-19.23081134 66.55075641 -17.31742792 63.94782921 -15.7265625 60.61328125 C-13.3125 57.9375 -13.3125 57.9375 -11.02978516 57.46411133 C-8.18417984 57.34556587 -5.4065604 57.41480578 -2.5625 57.5625 C-1.08716797 57.60310547 -1.08716797 57.60310547 0.41796875 57.64453125 C2.84337423 57.71517413 5.26431945 57.81373881 7.6875 57.9375 C7.275 57.35484375 6.8625 56.7721875 6.4375 56.171875 C1.73912014 49.50185359 -2.80857499 42.73997984 -7.3125 35.9375 C-7.9725 34.9475 -8.6325 33.9575 -9.3125 32.9375 C-15.60910145 40.30822758 -20.91059931 48.19851026 -26.234375 56.28125 C-29.06404911 60.57724206 -31.95273628 64.82907859 -34.875 69.0625 C-35.31739014 69.70340576 -35.75978027 70.34431152 -36.21557617 71.00463867 C-37.11334873 72.30454023 -38.01138076 73.60426263 -38.90966797 74.90380859 C-40.41434521 77.08514542 -41.91286349 79.27061965 -43.41015625 81.45703125 C-43.91667725 82.19614746 -44.42319824 82.93526367 -44.94506836 83.69677734 C-45.92184874 85.12240054 -46.89794999 86.54848934 -47.87329102 87.97509766 C-51.20047619 92.82547619 -51.20047619 92.82547619 -52.3125 93.9375 C-54.76080426 94.02593793 -57.18070599 94.05278752 -59.62890625 94.03515625 C-60.35996078 94.0337413 -61.09101532 94.03232635 -61.84422302 94.03086853 C-64.18785632 94.02525408 -66.53139539 94.01269922 -68.875 94 C-70.46028508 93.99498686 -72.04557166 93.99042363 -73.63085938 93.98632812 C-77.5247761 93.97527997 -81.41862205 93.95800572 -85.3125 93.9375 C-82.76904139 88.55785537 -79.29902504 83.74880763 -76 78.8125 C-74.92782227 77.2052002 -74.92782227 77.2052002 -73.83398438 75.56542969 C-68.93474408 68.26011805 -63.89150841 61.08121303 -58.69946289 53.98193359 C-55.01218748 48.93594392 -51.49873241 43.81357187 -48.06640625 38.58984375 C-45.82861575 35.20574631 -43.50229422 31.88938291 -41.1640625 28.57421875 C-39.40201619 26.06497559 -37.66012625 23.54256573 -35.92358398 21.015625 C-34.76602438 19.33575485 -33.60099074 17.6613262 -32.43359375 15.98828125 C-31.17971016 14.18481333 -29.93762232 12.37288078 -28.72265625 10.54296875 C-21.57204301 0.18349306 -12.35791666 -3.96386006 0 0 Z " fill="#FEFCFC" transform="translate(582.3125,69.0625)"/>
<path d="M0 0 C1.06064667 0.00007553 2.12129333 0.00015106 3.21408081 0.00022888 C4.9065947 0.00797081 4.9065947 0.00797081 6.63330078 0.01586914 C8.38515182 0.01799156 8.38515182 0.01799156 10.1723938 0.02015686 C13.89116002 0.02574041 17.60986535 0.03828995 21.32861328 0.05102539 C23.85465408 0.05604251 26.38069582 0.06060505 28.90673828 0.06469727 C35.0890533 0.07570446 41.27132298 0.09295784 47.45361328 0.11352539 C47.45361328 5.06352539 47.45361328 10.01352539 47.45361328 15.11352539 C29.96361328 15.44352539 12.47361328 15.77352539 -5.54638672 16.11352539 C-5.54638672 17.76352539 -5.54638672 19.41352539 -5.54638672 21.11352539 C-3.40234633 23.25756578 1.51384657 22.3000686 4.49267578 22.32446289 C6.37159047 22.35254964 8.2504966 22.38121421 10.12939453 22.41040039 C13.09830319 22.45154679 16.06705507 22.48842235 19.03613281 22.51489258 C21.89698667 22.54262608 24.7571074 22.58851902 27.61767578 22.63696289 C28.9368248 22.64184219 28.9368248 22.64184219 30.28262329 22.64682007 C35.73728507 22.75476755 39.63848721 23.48237249 44.45361328 26.11352539 C48.20030794 30.84619233 49.87984046 34.82725975 49.80126953 40.92211914 C48.97616624 46.12305112 45.62160974 49.97472885 41.95361328 53.55102539 C37.69746312 56.21111924 33.48968601 56.23778699 28.56176758 56.22705078 C27.40094162 56.22697525 26.24011566 56.22689972 25.04411316 56.2268219 C23.80124039 56.22166061 22.55836761 56.21649933 21.27783203 56.21118164 C19.99753616 56.20976669 18.7172403 56.20835175 17.39814758 56.20689392 C14.00664289 56.20308936 10.61518152 56.19327682 7.22369385 56.18218994 C3.75802191 56.17193137 0.29234292 56.1673868 -3.17333984 56.16235352 C-9.96437662 56.15133294 -16.75537235 56.13407261 -23.54638672 56.11352539 C-23.54638672 51.49352539 -23.54638672 46.87352539 -23.54638672 42.11352539 C-21.10051147 42.07594116 -21.10051147 42.07594116 -18.60522461 42.03759766 C-12.58007361 41.94372866 -6.55504346 41.84345867 -0.5300293 41.74121094 C2.08224672 41.69778415 4.69455256 41.65611501 7.30688477 41.61621094 C11.05250047 41.55869532 14.79796497 41.49494775 18.54345703 41.42993164 C19.71947983 41.41321915 20.89550262 41.39650665 22.10716248 41.37928772 C23.18820755 41.3593425 24.26925262 41.33939728 25.38305664 41.31884766 C26.34014023 41.30330338 27.29722382 41.28775909 28.28330994 41.27174377 C30.43224022 41.35283929 30.43224022 41.35283929 31.45361328 40.11352539 C31.4942516 38.44735424 31.49633428 36.77964444 31.45361328 35.11352539 C30.26396973 35.1094165 29.07432617 35.10530762 27.84863281 35.10107422 C23.39394026 35.07914295 18.94011353 35.02471014 14.48583984 34.9609375 C12.56567748 34.93787878 10.64539081 34.92339052 8.72509766 34.91796875 C-12.49254839 34.84628751 -12.49254839 34.84628751 -19.54638672 29.11352539 C-22.69464334 25.77295683 -23.78460966 22.14072862 -24.04638672 17.61352539 C-23.79527829 12.99940805 -22.63684067 9.58381168 -19.54638672 6.11352539 C-13.50271659 1.15000056 -7.74975126 -0.01854007 0 0 Z " fill="#F6F8F9" transform="translate(106.54638671875,86.886474609375)"/>
<path d="M0 0 C20.13 0 40.26 0 61 0 C61 4.95 61 9.9 61 15 C46.81 15 32.62 15 18 15 C18 17.31 18 19.62 18 22 C32.19 22 46.38 22 61 22 C61 25.96 61 29.92 61 34 C46.81 34 32.62 34 18 34 C18 36.64 18 39.28 18 42 C32.19 42 46.38 42 61 42 C61 46.62 61 51.24 61 56 C40.87 56 20.74 56 0 56 C0 37.52 0 19.04 0 0 Z " fill="#F8F9FB" transform="translate(323,87)"/>
<path d="M0 0 C7.50730247 -0.07448479 15.01438697 -0.12876082 22.52197266 -0.16479492 C25.07279206 -0.17982636 27.62358585 -0.20025705 30.17431641 -0.22631836 C33.85325463 -0.26294972 37.53184935 -0.27978346 41.2109375 -0.29296875 C42.34050873 -0.30845261 43.47007996 -0.32393646 44.63388062 -0.33988953 C54.61372955 -0.34198267 63.02298523 1.01085413 70.3671875 8.1171875 C73.33227537 11.53626012 74.94654938 14.65228452 75.05078125 19.23046875 C74.64576153 24.60373034 73.54179637 29.49302276 69.57421875 33.40625 C67.16661155 35.46137873 64.63245939 37.24502708 62 39 C62.58007812 39.556875 63.16015625 40.11375 63.7578125 40.6875 C64.53898437 41.450625 65.32015625 42.21375 66.125 43 C66.89070313 43.7425 67.65640625 44.485 68.4453125 45.25 C71.58961756 48.63469535 74.29139297 52.26335085 77 56 C56.64553056 57.90939985 56.64553056 57.90939985 51.34765625 53.62109375 C48.28276083 50.4799179 45.9594753 46.9189506 44 43 C35.09 42.67 26.18 42.34 17 42 C17 46.62 17 51.24 17 56 C11.39 56 5.78 56 0 56 C0 46.76 0 37.52 0 28 C3.53976562 27.96261719 7.07953125 27.92523438 10.7265625 27.88671875 C14.1620088 27.84048266 17.59734705 27.78925643 21.03271484 27.73754883 C23.41676241 27.70433354 25.80088797 27.67629108 28.18505859 27.65356445 C31.61589739 27.61995682 35.04602363 27.56763593 38.4765625 27.51171875 C39.53928375 27.50532883 40.602005 27.4989389 41.69692993 27.49235535 C47.28607337 27.38178757 51.25643706 27.05451317 56 24 C55.81870185 20.56206661 55.81870185 20.56206661 55 17 C52.03221706 14.92511282 49.4216534 14.73398495 45.86425781 14.68115234 C44.84350159 14.66128265 43.82274536 14.64141296 42.77105713 14.62094116 C41.12868073 14.60361435 41.12868073 14.60361435 39.453125 14.5859375 C37.76361725 14.55688828 37.76361725 14.55688828 36.03997803 14.5272522 C32.44339566 14.46748479 28.84678124 14.42108181 25.25 14.375 C22.81118398 14.33681766 20.3723814 14.29776578 17.93359375 14.2578125 C11.95583842 14.16178534 5.97801995 14.07774333 0 14 C0 9.38 0 4.76 0 0 Z " fill="#F9FAFC" transform="translate(394,87)"/>
<path d="M0 0 C6.75860231 -0.0746955 13.51695916 -0.12885851 20.27587891 -0.16479492 C22.5705179 -0.17979151 24.86512867 -0.20019551 27.15966797 -0.22631836 C30.47630825 -0.2631058 33.79256642 -0.2798182 37.109375 -0.29296875 C38.11925476 -0.30845261 39.12913452 -0.32393646 40.1696167 -0.33988953 C49.16388567 -0.34196892 59.37900258 0.58350456 66.59765625 6.49609375 C70.39202587 10.56526451 72.20788546 14.95098184 72.4375 20.5 C72.10982858 26.63062665 70.64983402 31.22944642 66.4375 35.75 C56.41026912 42.92973222 46.16932874 42.4951851 34.375 42.25 C32.68621916 42.22989933 30.99741515 42.21165488 29.30859375 42.1953125 C25.20514889 42.15161015 21.10283489 42.08278264 17 42 C17 46.62 17 51.24 17 56 C11.39 56 5.78 56 0 56 C0 46.76 0 37.52 0 28 C5.34445313 27.94392578 5.34445313 27.94392578 10.796875 27.88671875 C14.24550538 27.84051511 17.69402672 27.7892771 21.14257812 27.73754883 C23.54029725 27.70428323 25.93809499 27.67625645 28.3359375 27.65356445 C31.78159099 27.6200492 35.22652295 27.56773345 38.671875 27.51171875 C39.74491882 27.50532883 40.81796265 27.4989389 41.92352295 27.49235535 C42.92425842 27.47256119 43.9249939 27.45276703 44.95605469 27.43237305 C45.83541687 27.42126999 46.71477905 27.41016693 47.62078857 27.39872742 C50.45052787 26.92449691 51.8630514 25.86833007 54 24 C53.81870185 20.56206661 53.81870185 20.56206661 53 17 C50.07959154 14.97171913 47.54404973 14.73521726 44.04785156 14.68115234 C43.06713684 14.66128265 42.08642212 14.64141296 41.07598877 14.62094116 C40.02481873 14.60938995 38.97364868 14.59783875 37.890625 14.5859375 C36.80867859 14.56657135 35.72673218 14.5472052 34.61199951 14.5272522 C31.15807974 14.46749763 27.70412656 14.42108703 24.25 14.375 C21.90753759 14.33681647 19.56508916 14.29776452 17.22265625 14.2578125 C11.48188447 14.16179927 5.74104697 14.07775256 0 14 C0 9.38 0 4.76 0 0 Z " fill="#FAFBFC" transform="translate(243,87)"/>
<path d="M0 0 C1.48831242 0.00667405 2.97660807 0.01863442 4.46484375 0.03515625 C5.22345703 0.03966797 5.98207031 0.04417969 6.76367188 0.04882812 C8.64326246 0.06064945 10.52281274 0.07858547 12.40234375 0.09765625 C12.41692627 1.13172607 12.43150879 2.1657959 12.4465332 3.23120117 C12.50465257 7.08001707 12.58188398 10.92825624 12.66479492 14.77661133 C12.6979803 16.43992733 12.72603209 18.10335421 12.7487793 19.7668457 C12.78244374 22.16275124 12.83476315 24.5576466 12.890625 26.953125 C12.89701492 27.69290085 12.90340485 28.4326767 12.9099884 29.19487 C13.03581328 33.64675328 13.66660571 36.54909921 16.40234375 40.09765625 C20.89693306 42.91313484 26.1471316 42.392724 31.27734375 42.34765625 C32.15003906 42.35539062 33.02273437 42.363125 33.921875 42.37109375 C39.09920878 42.35552282 43.56821436 42.031308 48.40234375 40.09765625 C49.6448442 36.37015489 49.61497289 32.85113599 49.68359375 28.96484375 C49.70200317 28.17240265 49.7204126 27.37996155 49.73937988 26.56350708 C49.81807953 23.17219548 49.88600289 19.78068907 49.95458984 16.38916016 C50.00617935 13.91428388 50.06346317 11.4395855 50.12109375 8.96484375 C50.13466919 8.19196014 50.14824463 7.41907654 50.16223145 6.62277222 C50.28949041 1.21050959 50.28949041 1.21050959 51.40234375 0.09765625 C54.09889229 0.02446004 56.76925833 0.00523088 59.46484375 0.03515625 C60.22345703 0.03966797 60.98207031 0.04417969 61.76367188 0.04882812 C63.64326246 0.06064945 65.52281274 0.07858547 67.40234375 0.09765625 C67.50174929 5.50531749 67.57406426 10.91243853 67.62207031 16.32080078 C67.64209748 18.15780918 67.66932757 19.99475454 67.70410156 21.83154297 C67.7530144 24.48290627 67.77540138 27.13342166 67.79296875 29.78515625 C67.81361389 30.59694336 67.83425903 31.40873047 67.85552979 32.24511719 C67.85815561 39.02605727 65.8143983 43.93568219 61.71875 49.3046875 C52.21872029 58.00070579 39.44401265 57.70669741 27.23828125 57.38671875 C16.46567402 56.88458782 7.67565694 54.81122068 0.15234375 46.78515625 C-4.63736278 41.46755195 -4.8958319 34.63682194 -4.828125 27.79296875 C-4.82766678 27.02838348 -4.82720856 26.26379822 -4.82673645 25.4760437 C-4.82373542 23.87431264 -4.81591429 22.27258394 -4.8034668 20.67089844 C-4.78505322 18.20888058 -4.78295848 15.74723622 -4.78320312 13.28515625 C-4.778293 11.72525714 -4.7724669 10.16536058 -4.765625 8.60546875 C-4.76451218 7.86700714 -4.76339935 7.12854553 -4.76225281 6.3677063 C-4.70354022 0.12767482 -4.70354022 0.12767482 0 0 Z " fill="#F8F9FB" transform="translate(166.59765625,86.90234375)"/>
<path d="M0 0 C0.99 0 1.98 0 3 0 C3 68.64 3 137.28 3 208 C2.01 208 1.02 208 0 208 C0 139.36 0 70.72 0 0 Z " fill="#1E2146" transform="translate(0,0)"/>
<path d="M0 0 C100.32 0 200.64 0 304 0 C303.34 1.65 302.68 3.3 302 5 C301.67 3.68 301.34 2.36 301 1 C300.34901169 1.0712328 299.69802339 1.1424656 299.02730817 1.21585697 C291.8838182 1.93887717 284.84371363 2.12682474 277.66767883 2.08229065 C276.47404998 2.07906152 275.28042112 2.07583239 274.05062169 2.07250541 C270.76898905 2.062594 267.48741577 2.04807055 264.20581114 2.03152263 C260.65520051 2.01476908 257.10457078 2.00407209 253.55393982 1.99261475 C247.41266063 1.97198041 241.27140598 1.9475655 235.13015175 1.92053413 C226.25108588 1.88145755 217.37200562 1.8481582 208.49291148 1.81623887 C194.08485677 1.76428801 179.67682414 1.70770789 165.26879883 1.64819336 C151.27824766 1.59041323 137.28769059 1.53482773 123.29711914 1.48217773 C122.43378038 1.47892802 121.57044162 1.4756783 120.68094108 1.4723301 C116.34953753 1.45603962 112.01813382 1.43979212 107.68673003 1.42356598 C71.79112606 1.28903972 35.89555499 1.14699081 0 1 C0 0.67 0 0.34 0 0 Z " fill="#0B2951" transform="translate(241,68)"/>
<path d="M0 0 C0.99 0.495 0.99 0.495 2 1 C1.96744792 2.98567708 1.93489583 4.97135417 1.90234375 6.95703125 C1.91736783 9.20305461 1.91736783 9.20305461 3 12 C2.96305579 14.708295 2.86170575 17.36350408 2.6875 20.0625 C2.65205078 20.79533203 2.61660156 21.52816406 2.58007812 22.28320312 C2.2433265 27.7566735 2.2433265 27.7566735 0 30 C0 20.1 0 10.2 0 0 Z " fill="#002151" transform="translate(180,93)"/>
<path d="M0 0 C2 2 2 2 2.16015625 4.609375 C2.12792969 5.64578125 2.09570312 6.6821875 2.0625 7.75 C1.9873965 11.233968 2.02457861 14.12736186 2.6875 17.5625 C2.790625 18.366875 2.89375 19.17125 3 20 C2.01 20.99 1.02 21.98 0 23 C0 15.41 0 7.82 0 0 Z " fill="#001F51" transform="translate(235,96)"/>
<path d="M0 0 C0.33 0.99 0.66 1.98 1 3 C-0.328125 5.41015625 -0.328125 5.41015625 -2.25 8.0625 C-3.18585937 9.37927734 -3.18585937 9.37927734 -4.140625 10.72265625 C-6 13 -6 13 -9 15 C-7.61219205 11.10993227 -5.7847773 8.03441292 -3.375 4.6875 C-2.74335937 3.80449219 -2.11171875 2.92148438 -1.4609375 2.01171875 C-0.97882812 1.34785156 -0.49671875 0.68398437 0 0 Z " fill="#C03D34" transform="translate(516,110)"/>
<path d="M0 0 C-3.86790352 2.57860235 -6.76613915 2.01114505 -11.1875 1.625 C-11.93708984 1.56828125 -12.68667969 1.5115625 -13.45898438 1.453125 C-15.30676559 1.31189331 -17.153512 1.15723833 -19 1 C-19 0.67 -19 0.34 -19 0 C-16.58373582 -0.19534474 -14.16734771 -0.38153404 -11.75 -0.5625 C-11.06808594 -0.61857422 -10.38617188 -0.67464844 -9.68359375 -0.73242188 C-6.2579419 -0.98186254 -3.27298823 -1.13879745 0 0 Z " fill="#3C5D82" transform="translate(213,144)"/>
<path d="M0 0 C0.33 0.99 0.66 1.98 1 3 C0.07421875 4.82421875 0.07421875 4.82421875 -1.3125 6.6875 C-1.76238281 7.31011719 -2.21226562 7.93273437 -2.67578125 8.57421875 C-3.11277344 9.04472656 -3.54976562 9.51523438 -4 10 C-4.66 10 -5.32 10 -6 10 C-4.6302836 6.00499382 -2.74277578 3.19990508 0 0 Z " fill="#C13E31" transform="translate(544,70)"/>
<path d="M0 0 C0.75 1.6875 0.75 1.6875 1 4 C-0.875 6.625 -0.875 6.625 -3 9 C-3.33 9.66 -3.66 10.32 -4 11 C-4.66 11 -5.32 11 -6 11 C-4.54955729 6.89041233 -2.48889248 3.56741255 0 0 Z " fill="#C63D34" transform="translate(527,94)"/>
</svg>
